<svg width="192" height="192" viewBox="0 0 192 192" fill="none" xmlns="http://www.w3.org/2000/svg">
  <rect width="192" height="192" rx="32" fill="#4CAF50"/>
  <path d="M96 50C70.6 50 50 70.6 50 96C50 121.4 70.6 142 96 142C121.4 142 142 121.4 142 96C142 70.6 121.4 50 96 50ZM96 130C77.2 130 62 114.8 62 96C62 77.2 77.2 62 96 62C114.8 62 130 77.2 130 96C130 114.8 114.8 130 96 130Z" fill="white"/>
  <circle cx="96" cy="96" r="20" fill="white"/>
  <path d="M80 40L88 52H104L112 40H80Z" fill="white"/>
</svg>
